<svg width="39" height="36" viewBox="0 0 39 36" fill="none" xmlns="http://www.w3.org/2000/svg">
<g filter="url(#filter0_dd)">
<rect x="4" width="28" height="28" rx="14" fill="#F6F7F8"/>
<path d="M11.6177 15.5752C11.6177 15.2155 11.4907 14.9404 11.2368 14.75C10.9829 14.5553 10.5259 14.3522 9.86572 14.1406C9.20557 13.9248 8.68294 13.7132 8.29785 13.5059C7.24837 12.9388 6.72363 12.175 6.72363 11.2144C6.72363 10.715 6.86328 10.2707 7.14258 9.88135C7.42611 9.48779 7.83024 9.18099 8.35498 8.96094C8.88395 8.74089 9.4764 8.63086 10.1323 8.63086C10.7925 8.63086 11.3807 8.75146 11.897 8.99268C12.4132 9.22965 12.8132 9.56608 13.0967 10.002C13.3844 10.4378 13.5283 10.9329 13.5283 11.4873H11.624C11.624 11.0641 11.4907 10.7362 11.2241 10.5034C10.9575 10.2664 10.583 10.1479 10.1006 10.1479C9.63509 10.1479 9.27327 10.2474 9.01514 10.4463C8.757 10.641 8.62793 10.8991 8.62793 11.2207C8.62793 11.5212 8.77816 11.7729 9.07861 11.9761C9.3833 12.1792 9.82975 12.3696 10.418 12.5474C11.5013 12.8732 12.2905 13.2773 12.7856 13.7598C13.2808 14.2422 13.5283 14.8431 13.5283 15.5625C13.5283 16.3623 13.2257 16.9907 12.6206 17.4478C12.0155 17.9006 11.2008 18.127 10.1768 18.127C9.46582 18.127 8.81836 17.9979 8.23438 17.7397C7.65039 17.4774 7.20394 17.1198 6.89502 16.667C6.59033 16.2142 6.43799 15.6895 6.43799 15.0928H8.34863C8.34863 16.1126 8.95801 16.6226 10.1768 16.6226C10.6296 16.6226 10.9829 16.5316 11.2368 16.3496C11.4907 16.1634 11.6177 15.9053 11.6177 15.5752ZM18.6826 18C18.598 17.835 18.5366 17.6297 18.4985 17.3843C18.0542 17.8794 17.4766 18.127 16.7656 18.127C16.0928 18.127 15.5342 17.9323 15.0898 17.543C14.6497 17.1536 14.4297 16.6628 14.4297 16.0703C14.4297 15.3424 14.6984 14.7839 15.2358 14.3945C15.7775 14.0052 16.5583 13.8084 17.5781 13.8042H18.4224V13.4106C18.4224 13.0933 18.3398 12.8394 18.1748 12.6489C18.014 12.4585 17.758 12.3633 17.4067 12.3633C17.0978 12.3633 16.8545 12.4373 16.6768 12.5854C16.5033 12.7336 16.4165 12.9367 16.4165 13.1948H14.582C14.582 12.797 14.7048 12.4289 14.9502 12.0903C15.1956 11.7518 15.5426 11.4873 15.9912 11.2969C16.4398 11.1022 16.9434 11.0049 17.502 11.0049C18.3483 11.0049 19.019 11.2186 19.5142 11.646C20.0135 12.0692 20.2632 12.6659 20.2632 13.436V16.4131C20.2674 17.0648 20.3584 17.5578 20.5361 17.8921V18H18.6826ZM17.1655 16.7241C17.4364 16.7241 17.686 16.6649 17.9146 16.5464C18.1431 16.4237 18.3123 16.2607 18.4224 16.0576V14.877H17.7368C16.8185 14.877 16.3298 15.1943 16.2705 15.8291L16.2642 15.937C16.2642 16.1655 16.3446 16.3538 16.5054 16.502C16.6662 16.6501 16.8862 16.7241 17.1655 16.7241ZM23.6084 18H21.7676V11.1318H23.6084V18ZM21.6597 9.35449C21.6597 9.07943 21.7507 8.85303 21.9326 8.67529C22.1188 8.49756 22.3706 8.40869 22.688 8.40869C23.0011 8.40869 23.2508 8.49756 23.437 8.67529C23.6232 8.85303 23.7163 9.07943 23.7163 9.35449C23.7163 9.63379 23.6211 9.8623 23.4307 10.04C23.2445 10.2178 22.9969 10.3066 22.688 10.3066C22.3791 10.3066 22.1294 10.2178 21.939 10.04C21.7528 9.8623 21.6597 9.63379 21.6597 9.35449ZM28.9849 12.8521C28.7352 12.8182 28.5151 12.8013 28.3247 12.8013C27.6307 12.8013 27.1758 13.0361 26.96 13.5059V18H25.1255V11.1318H26.8584L26.9092 11.9507C27.2773 11.3201 27.7873 11.0049 28.439 11.0049C28.6421 11.0049 28.8325 11.0324 29.0103 11.0874L28.9849 12.8521Z" fill="#FF206E"/>
</g>
<defs>
<filter id="filter0_dd" x="0.823125" y="0" width="37.5306" height="35.148" filterUnits="userSpaceOnUse" color-interpolation-filters="sRGB">
<feFlood flood-opacity="0" result="BackgroundImageFix"/>
<feColorMatrix in="SourceAlpha" type="matrix" values="0 0 0 0 0 0 0 0 0 0 0 0 0 0 0 0 0 0 127 0"/>
<feOffset dx="3.17687" dy="3.97109"/>
<feGaussianBlur stdDeviation="1.58844"/>
<feColorMatrix type="matrix" values="0 0 0 0 0 0 0 0 0 0 0 0 0 0 0 0 0 0 0.25 0"/>
<feBlend mode="normal" in2="BackgroundImageFix" result="effect1_dropShadow"/>
<feColorMatrix in="SourceAlpha" type="matrix" values="0 0 0 0 0 0 0 0 0 0 0 0 0 0 0 0 0 0 127 0"/>
<feOffset dy="3.17687"/>
<feGaussianBlur stdDeviation="1.58844"/>
<feColorMatrix type="matrix" values="0 0 0 0 0 0 0 0 0 0 0 0 0 0 0 0 0 0 0.25 0"/>
<feBlend mode="normal" in2="effect1_dropShadow" result="effect2_dropShadow"/>
<feBlend mode="normal" in="SourceGraphic" in2="effect2_dropShadow" result="shape"/>
</filter>
</defs>
</svg>
