<?xml version="1.0" encoding="iso-8859-1"?>
<!-- Generator: Adobe Illustrator 19.0.0, SVG Export Plug-In . SVG Version: 6.00 Build 0)  -->
<svg version="1.1" id="Capa_1" xmlns="http://www.w3.org/2000/svg" xmlns:xlink="http://www.w3.org/1999/xlink" x="0px" y="0px"
	 viewBox="0 0 512 512" style="enable-background:new 0 0 512 512;" xml:space="preserve">
<path style="fill:#EFEFEF;" d="M347.398,120.174h-7.322l50.917-110.075H269.638l-15.905,34.396l-15.905-34.396H116.472
	l50.917,110.075h-2.787c-7.523,0-13.633,6.1-13.633,13.633v21.207c0,7.534,6.11,13.633,13.633,13.633h91.403h91.392
	c7.534,0,13.633-6.1,13.633-13.633v-21.207C361.031,126.273,354.931,120.174,347.398,120.174z"/>
<polyline style="fill:#CC3F3F;" points="390.993,10.099 340.076,120.174 288.735,120.174 253.733,44.495 269.638,10.099 "/>
<polyline style="fill:#FF4F4F;" points="237.828,10.099 253.733,44.495 288.735,120.174 167.39,120.174 116.472,10.099 "/>
<g>
	<polygon style="fill:#44C973;" points="322.363,332.214 281.353,362.005 297.016,410.216 256.005,380.425 214.995,410.216 
		230.658,362.005 189.647,332.214 240.342,332.214 256.005,284.003 271.668,332.214 	"/>
	<path style="fill:#44C973;" d="M256.005,249.941c58.006,0,105.026,47.019,105.026,105.026s-47.019,105.026-105.026,105.026
		s-105.036-47.019-105.036-105.026S197.999,249.941,256.005,249.941z M281.353,362.005l41.01-29.791h-50.695l-15.663-48.211
		l-15.663,48.211h-50.695l41.01,29.791l-15.663,48.211l41.011-29.791l41.01,29.791L281.353,362.005z"/>
</g>
<path style="fill:#FBC640;" d="M256.005,501.901c-81.153,0-146.945-65.782-146.945-146.935s65.793-146.935,146.945-146.935
	S402.94,273.814,402.94,354.966S337.158,501.901,256.005,501.901"/>
<path style="fill:#FBDF97;" d="M256.005,249.941c-58.006,0-105.036,47.019-105.036,105.026s47.029,105.026,105.036,105.026
	s105.026-47.019,105.026-105.026S314.012,249.941,256.005,249.941z M297.016,410.216l-41.01-29.791l-41.01,29.791l15.663-48.211
	l-41.01-29.791h50.695l15.663-48.211l15.663,48.211h50.695l-41.01,29.791L297.016,410.216z"/>
<path d="M98.961,354.966c0,86.589,70.45,157.034,157.044,157.034c86.589,0,157.034-70.445,157.034-157.034
	c0-26.274-6.619-52.274-19.141-75.194c-2.673-4.894-8.809-6.695-13.704-4.019c-4.895,2.673-6.694,8.81-4.019,13.704
	c10.904,19.958,16.668,42.611,16.668,65.51c0,75.452-61.384,136.836-136.836,136.836c-75.458,0-136.846-61.384-136.846-136.836
	S180.547,218.13,256.005,218.13c25.271,0,49.956,6.94,71.383,20.068c4.758,2.914,10.974,1.422,13.887-3.335
	c2.914-4.755,1.421-10.973-3.335-13.887c-21.739-13.32-46.39-21.081-71.837-22.711v-19.521h81.294
	c13.086,0,23.732-10.646,23.732-23.732v-21.207c0-10.333-6.64-19.14-15.876-22.39l44.906-97.079c0.018-0.04,0.031-0.081,0.048-0.121
	c0.088-0.195,0.165-0.395,0.24-0.596c0.044-0.119,0.091-0.237,0.131-0.357c0.06-0.18,0.109-0.363,0.158-0.546
	c0.04-0.149,0.083-0.299,0.116-0.45c0.032-0.148,0.058-0.301,0.083-0.452c0.032-0.189,0.065-0.378,0.087-0.568
	c0.014-0.123,0.021-0.248,0.031-0.374c0.016-0.217,0.03-0.433,0.032-0.649c0-0.042,0.006-0.084,0.006-0.126
	c0-0.082-0.01-0.16-0.012-0.24c-0.005-0.209-0.013-0.416-0.031-0.623c-0.012-0.146-0.031-0.292-0.049-0.436
	c-0.022-0.173-0.047-0.344-0.079-0.515c-0.031-0.172-0.068-0.34-0.108-0.508c-0.033-0.141-0.069-0.282-0.108-0.421
	c-0.051-0.183-0.109-0.363-0.171-0.541c-0.043-0.126-0.09-0.252-0.138-0.377c-0.069-0.177-0.142-0.35-0.22-0.522
	c-0.059-0.129-0.12-0.257-0.185-0.383c-0.079-0.156-0.162-0.309-0.248-0.459c-0.08-0.14-0.165-0.277-0.251-0.413
	c-0.083-0.128-0.167-0.254-0.254-0.379c-0.105-0.149-0.215-0.295-0.328-0.439c-0.083-0.105-0.167-0.207-0.253-0.308
	c-0.127-0.149-0.26-0.295-0.397-0.437c-0.088-0.091-0.177-0.18-0.269-0.268c-0.141-0.136-0.286-0.268-0.435-0.396
	c-0.105-0.09-0.212-0.177-0.321-0.263c-0.14-0.111-0.284-0.219-0.431-0.322c-0.137-0.097-0.278-0.188-0.42-0.278
	c-0.127-0.081-0.255-0.161-0.388-0.235c-0.177-0.101-0.358-0.194-0.541-0.285c-0.075-0.036-0.144-0.081-0.22-0.115
	c-0.04-0.018-0.081-0.031-0.121-0.048c-0.195-0.088-0.395-0.165-0.596-0.24c-0.119-0.044-0.237-0.091-0.358-0.131
	c-0.18-0.06-0.363-0.109-0.546-0.158c-0.15-0.04-0.3-0.083-0.45-0.116c-0.148-0.032-0.3-0.057-0.451-0.083
	c-0.19-0.033-0.379-0.065-0.568-0.087c-0.123-0.014-0.248-0.021-0.373-0.031c-0.217-0.017-0.433-0.03-0.65-0.032
	c-0.042,0-0.084-0.006-0.126-0.006H269.637c-0.079,0-0.156,0.01-0.233,0.012c-0.212,0.005-0.424,0.013-0.634,0.032
	c-0.143,0.012-0.284,0.03-0.426,0.048c-0.177,0.023-0.351,0.048-0.526,0.081c-0.168,0.03-0.333,0.067-0.499,0.106
	c-0.144,0.034-0.288,0.071-0.431,0.111c-0.181,0.052-0.357,0.107-0.533,0.168c-0.129,0.044-0.257,0.091-0.384,0.14
	c-0.175,0.069-0.346,0.141-0.516,0.218c-0.13,0.06-0.259,0.121-0.386,0.186c-0.155,0.079-0.307,0.161-0.457,0.247
	c-0.14,0.08-0.278,0.165-0.414,0.251c-0.128,0.083-0.254,0.167-0.38,0.254c-0.149,0.105-0.295,0.214-0.438,0.327
	c-0.105,0.084-0.209,0.169-0.31,0.255c-0.147,0.126-0.292,0.258-0.433,0.394c-0.093,0.09-0.184,0.181-0.273,0.274
	c-0.133,0.138-0.264,0.281-0.389,0.428c-0.093,0.108-0.182,0.218-0.27,0.33c-0.108,0.137-0.214,0.277-0.315,0.421
	c-0.1,0.141-0.194,0.286-0.286,0.432c-0.078,0.124-0.156,0.247-0.228,0.376c-0.104,0.182-0.2,0.369-0.292,0.556
	c-0.035,0.072-0.077,0.137-0.11,0.21l-6.739,14.573l-6.74-14.573c-0.033-0.073-0.075-0.138-0.11-0.21
	c-0.093-0.189-0.188-0.375-0.292-0.556c-0.074-0.128-0.15-0.252-0.229-0.377c-0.092-0.145-0.185-0.289-0.284-0.429
	c-0.103-0.146-0.209-0.287-0.319-0.426c-0.086-0.109-0.174-0.217-0.264-0.323c-0.128-0.15-0.262-0.296-0.397-0.437
	c-0.086-0.09-0.174-0.178-0.263-0.264c-0.144-0.139-0.293-0.275-0.445-0.405c-0.097-0.083-0.195-0.164-0.295-0.242
	c-0.149-0.118-0.301-0.232-0.456-0.341c-0.117-0.083-0.235-0.162-0.355-0.239c-0.145-0.094-0.293-0.183-0.442-0.269
	c-0.139-0.08-0.281-0.156-0.424-0.229c-0.14-0.072-0.282-0.139-0.424-0.204c-0.157-0.071-0.315-0.138-0.476-0.201
	c-0.142-0.056-0.286-0.108-0.43-0.158c-0.161-0.055-0.322-0.106-0.486-0.152c-0.161-0.045-0.321-0.087-0.484-0.124
	c-0.147-0.034-0.296-0.067-0.445-0.095c-0.194-0.036-0.389-0.065-0.584-0.089c-0.122-0.015-0.244-0.031-0.369-0.042
	c-0.23-0.02-0.463-0.03-0.695-0.035c-0.07-0.003-0.134-0.012-0.2-0.012H116.472c-0.044,0-0.087,0.006-0.13,0.007
	c-0.212,0.003-0.423,0.016-0.635,0.032c-0.129,0.01-0.26,0.017-0.388,0.031c-0.185,0.021-0.369,0.053-0.552,0.084
	c-0.157,0.027-0.313,0.053-0.467,0.086c-0.146,0.032-0.291,0.073-0.436,0.112c-0.188,0.05-0.376,0.101-0.559,0.162
	c-0.117,0.038-0.232,0.084-0.349,0.127c-0.204,0.076-0.405,0.155-0.602,0.242c-0.039,0.018-0.081,0.03-0.12,0.048
	c-0.076,0.035-0.145,0.079-0.22,0.115c-0.184,0.091-0.365,0.184-0.541,0.285c-0.132,0.075-0.26,0.155-0.388,0.235
	c-0.142,0.09-0.283,0.181-0.42,0.278c-0.147,0.104-0.291,0.212-0.431,0.322c-0.109,0.086-0.216,0.173-0.321,0.263
	c-0.149,0.128-0.295,0.261-0.435,0.396c-0.091,0.088-0.181,0.177-0.268,0.268c-0.137,0.142-0.27,0.288-0.397,0.437
	c-0.087,0.101-0.171,0.203-0.253,0.308c-0.114,0.144-0.223,0.29-0.328,0.439c-0.088,0.124-0.173,0.25-0.254,0.379
	c-0.087,0.136-0.171,0.274-0.251,0.413c-0.087,0.15-0.169,0.304-0.248,0.459c-0.064,0.126-0.126,0.253-0.185,0.383
	c-0.079,0.172-0.151,0.345-0.22,0.522c-0.048,0.125-0.095,0.25-0.138,0.377c-0.062,0.179-0.118,0.359-0.171,0.541
	c-0.039,0.139-0.075,0.28-0.108,0.421c-0.039,0.169-0.077,0.336-0.108,0.508c-0.031,0.171-0.056,0.342-0.079,0.515
	c-0.018,0.145-0.036,0.29-0.049,0.436c-0.018,0.207-0.026,0.414-0.031,0.623c-0.002,0.081-0.012,0.16-0.012,0.24
	c0,0.042,0.006,0.084,0.006,0.126c0.003,0.216,0.016,0.432,0.032,0.649c0.01,0.125,0.017,0.25,0.031,0.374
	c0.021,0.19,0.054,0.379,0.087,0.568c0.026,0.151,0.05,0.303,0.083,0.452c0.033,0.15,0.075,0.3,0.116,0.45
	c0.049,0.184,0.099,0.367,0.159,0.546c0.039,0.12,0.086,0.238,0.131,0.357c0.075,0.201,0.152,0.401,0.24,0.596
	c0.018,0.04,0.03,0.081,0.048,0.121L153,113.115c-7.231,4.072-12.127,11.817-12.127,20.69v21.207
	c0,13.086,10.646,23.732,23.732,23.732h81.304v19.522C164.002,203.491,98.961,271.771,98.961,354.966z M276.094,20.197h99.101
	l-41.575,89.878h-38.429l-30.331-65.583L276.094,20.197z M173.845,110.075L132.27,20.197h99.102l13.249,28.649
	c0.006,0.012,0.011,0.025,0.017,0.037l28.299,61.192H173.845z M161.068,155.014v-21.207c0-1.949,1.585-3.535,3.535-3.535h2.787
	h121.345h51.297c0.012,0,0.024,0.002,0.037,0.002c0.009,0,0.018-0.002,0.028-0.002h7.3c1.949,0,3.535,1.585,3.535,3.535v21.207
	c0,1.949-1.585,3.535-3.535,3.535H164.602C162.653,158.548,161.068,156.963,161.068,155.014z"/>
<path d="M256.005,239.842c-63.485,0-115.134,51.645-115.134,115.124s51.649,115.124,115.134,115.124
	c63.479,0,115.124-51.645,115.124-115.124S319.484,239.842,256.005,239.842z M256.005,449.893
	c-52.348,0-94.937-42.584-94.937-94.927s42.589-94.927,94.937-94.927c52.343,0,94.927,42.584,94.927,94.927
	S308.348,449.893,256.005,449.893z"/>
<path d="M279.005,322.116l-13.396-41.232c-1.352-4.161-5.23-6.978-9.605-6.978c-4.375,0-8.253,2.818-9.605,6.978l-13.396,41.232
	h-43.358c-4.375,0-8.253,2.818-9.605,6.978c-1.352,4.161,0.129,8.72,3.67,11.291l35.074,25.478l-13.397,41.233
	c-1.352,4.161,0.129,8.719,3.669,11.29c3.539,2.572,8.332,2.571,11.871,0.001l35.076-25.479l35.076,25.479
	c1.769,1.285,3.852,1.928,5.935,1.928s4.167-0.643,5.936-1.929c3.54-2.571,5.021-7.13,3.669-11.29l-13.397-41.233l35.073-25.478
	c3.541-2.571,5.022-7.131,3.67-11.291c-1.352-4.161-5.23-6.978-9.605-6.978L279.005,322.116L279.005,322.116z M275.418,353.834
	c-3.541,2.572-5.022,7.131-3.67,11.291l6.062,18.657l-15.87-11.528c-1.769-1.285-3.852-1.928-5.935-1.928s-4.166,0.643-5.935,1.928
	l-15.87,11.528l6.062-18.657c1.352-4.161-0.129-8.719-3.67-11.291l-15.861-11.522h19.611c4.375,0,8.253-2.818,9.605-6.978
	l6.058-18.647l6.058,18.647c1.352,4.161,5.23,6.978,9.605,6.978h19.611L275.418,353.834z"/>
<path d="M360.694,242.367c-12.996,0-13.017,20.197,0,20.197C373.69,262.564,373.712,242.367,360.694,242.367z"/>
<g>
</g>
<g>
</g>
<g>
</g>
<g>
</g>
<g>
</g>
<g>
</g>
<g>
</g>
<g>
</g>
<g>
</g>
<g>
</g>
<g>
</g>
<g>
</g>
<g>
</g>
<g>
</g>
<g>
</g>
</svg>
