<svg id="Layer_1" enable-background="new 0 0 64 64" height="512" viewBox="0 0 64 64" width="512" xmlns="http://www.w3.org/2000/svg"><g><g><path d="m36.793 4.5h-4.293v-4h4.293c.445 0 .669.539.354.854l-.793.793c-.195.195-.195.512 0 .707l.793.793c.314.314.091.853-.354.853z" fill="#6fa4d8"/></g><g><path d="m32 7.5c-.276 0-.5-.224-.5-.5v-6.5c0-.276.224-.5.5-.5s.5.224.5.5v6.5c0 .276-.224.5-.5.5z" fill="#55525b"/></g><g><path d="m56 64h-12v-10.5h8c2.209 0 4 1.791 4 4z" fill="#353744"/></g><g><g><path d="m38 30.5h-12c-1.105 0-2 .895-2 2v2h16v-2c0-1.105-.895-2-2-2z" fill="#353744"/></g><g><path d="m30 30.5h-4c-1.105 0-2 .895-2 2v2h8v-2c0-1.105-.895-2-2-2z" fill="#55525b"/></g><path d="m40 14.5v-6h-16v2h-2c-1.654 0-3 1.346-3 3v1c0 2.757 2.243 5 5 5h1.768c1.27 1.577 3.12 2.667 5.232 2.931v3.069c0 1.657-1.343 3-3 3-1.105 0-2 .895-2 2h12c0-1.105-.895-2-2-2-1.657 0-3-1.343-3-3v-3.069c3.945-.493 7-3.852 7-7.931zm-16 3c-1.654 0-3-1.346-3-3v-1c0-.552.449-1 1-1h2v2c0 1.062.211 2.073.587 3z" fill="#fbbe18"/><g><path d="m41 8.5h-18c-.552 0-1-.448-1-1 0-.552.448-1 1-1h18c.552 0 1 .448 1 1 0 .552-.448 1-1 1z" fill="#fbbe18"/></g><g><path d="m41 6.5h-9c.552 0 1 .448 1 1s-.448 1-1 1h9c.552 0 1-.448 1-1s-.448-1-1-1z" fill="#f68820"/></g><g><path d="m24 8.5h8v2h-8z" fill="#f68820"/></g><path d="m42 10.5h-2v-2h-8v6c0 2.959-1.611 5.537-4 6.921.904.524 1.918.874 3 1.011v2.068h1v6h6c0-1.105-.895-2-2-2-1.657 0-3-1.343-3-3v-3.069c2.112-.264 3.962-1.354 5.232-2.931h1.768c2.757 0 5-2.243 5-5v-1c0-1.654-1.346-3-3-3zm1 4c0 1.654-1.346 3-3 3h-.587c.376-.927.587-1.938.587-3v-2h2c.552 0 1 .448 1 1z" fill="#f68820"/><g><circle cx="28" cy="14.25" fill="#fbd301" r="1.75"/></g><g><path d="m15 15.5h2c.552 0 1-.448 1-1 0-.552-.448-1-1-1h-2c-.552 0-1 .448-1 1 0 .552.448 1 1 1z" fill="#fbbe18"/></g><g><path d="m20.686 27.228 1.414-1.414c.391-.391.391-1.024 0-1.414-.391-.391-1.024-.391-1.414 0l-1.414 1.414c-.391.391-.391 1.024 0 1.414.391.39 1.024.39 1.414 0z" fill="#fbbe18"/></g><g><path d="m44.728 25.814-1.414-1.414c-.391-.391-1.024-.391-1.414 0-.391.391-.391 1.024 0 1.414l1.414 1.414c.391.391 1.024.391 1.414 0 .39-.391.39-1.024 0-1.414z" fill="#fbbe18"/></g><g><path d="m49 13.5h-2c-.552 0-1 .448-1 1 0 .552.448 1 1 1h2c.552 0 1-.448 1-1 0-.552-.448-1-1-1z" fill="#fbbe18"/></g><g><path d="m43.314 1.772-1.414 1.414c-.391.391-.391 1.024 0 1.414.391.391 1.024.391 1.414 0l1.414-1.414c.391-.391.391-1.024 0-1.414-.391-.39-1.024-.39-1.414 0z" fill="#fbbe18"/></g><g><path d="m19.272 3.186 1.414 1.414c.391.391 1.024.391 1.414 0 .391-.391.391-1.024 0-1.414l-1.414-1.414c-.391-.391-1.024-.391-1.414 0-.39.391-.39 1.024 0 1.414z" fill="#fbbe18"/></g></g><g><path d="m40 34.5h-16c-2.209 0-4 1.791-4 4v25.5h24v-25.5c0-2.209-1.791-4-4-4z" fill="#5c76b2"/></g><g><path d="m28 34.5h-4c-2.209 0-4 1.791-4 4v25.5h12v-25.5c0-2.209-1.791-4-4-4z" fill="#6fa4d8"/></g><g><path d="m28 44h-16c-2.209 0-4 1.791-4 4v16h24v-16c0-2.209-1.791-4-4-4z" fill="#353744"/></g><g><path d="m16 44h-4c-2.209 0-4 1.791-4 4v16h12v-16c0-2.209-1.791-4-4-4z" fill="#55525b"/></g><g><g><path d="m38.5 49c-.553 0-1-.447-1-1v-5.586l-.293.293c-.391.391-1.023.391-1.414 0s-.391-1.023 0-1.414l2-2c.287-.286.716-.373 1.09-.217.374.154.617.52.617.924v8c0 .553-.447 1-1 1z" fill="#fbbe18"/></g><g><path d="m40.5 49h-4c-.553 0-1-.447-1-1s.447-1 1-1h4c.553 0 1 .447 1 1s-.447 1-1 1z" fill="#fbbe18"/></g></g></g></svg>