<svg id="Layer_1" enable-background="new 0 0 453.148 453.148" height="512" viewBox="0 0 453.148 453.148" width="512" xmlns="http://www.w3.org/2000/svg"><g><g><path d="m331.206 393.803v-334.457l-104.163-50.995-104.163 50.995v334.457l104.163 50.995z" fill="#71e4bf"/><path d="m266.206 107.016 64.153-48.085-103.316-50.58-103.316 50.58 62.604 47.326z" fill="#a7eed4"/><path d="m266.206 346.132 64.153 48.085-103.316 50.581-103.316-50.581 62.604-47.326z" fill="#a7eed4"/><path d="m227.043 8.351-22.743 11.134 106.906 52.337v309.504l-106.906 52.337 22.743 11.135 104.163-50.995v-334.457z" fill="#71e4bf"/><path d="m330.359 58.931-19.153 14.356v306.574l19.153 14.356.847-.414v-334.457z" fill="#69bdc6"/><path d="m266.206 346.132v-239.875l-39.163-97.906-40.712 97.906v239.875l40.712 98.666z" fill="#71e4bf"/><path d="m186.331 346.132h79.875v-239.116l-79.875-.758z" fill="#a7eed4"/><path d="m416.032 140.261c0-8.058-8.197-15.213-20.88-19.725-5.555-1.976-9.95-6.371-11.927-11.927-4.512-12.683-11.667-20.88-19.725-20.88s-15.213 8.197-19.725 20.88c-1.976 5.555-6.371 9.95-11.927 11.927-12.683 4.512-20.88 11.667-20.88 19.725s8.197 15.213 20.88 19.725c5.555 1.976 9.95 6.371 11.927 11.927 4.512 12.683 11.667 20.88 19.725 20.88s15.213-8.197 19.725-20.88c1.976-5.555 6.371-9.95 11.927-11.927 12.683-4.512 20.88-11.667 20.88-19.725z" fill="#ffc277"/></g><g><g><path d="m397.666 113.47c-3.406-1.211-6.162-3.968-7.374-7.374-5.848-16.438-15.613-25.866-26.791-25.866-9.995 0-18.849 7.554-24.795 20.899v-46.462l-111.663-54.667-111.663 54.667v343.814l111.663 54.667 58.1-28.443-6.596-13.473-37.375 18.298 28.386-71.513 46.499 34.852-22.447 10.989 6.596 13.473 38.5-18.849v-219.088c5.945 13.344 14.8 20.898 24.795 20.898 11.178 0 20.943-9.428 26.791-25.865 1.211-3.406 3.968-6.163 7.374-7.374 16.438-5.848 25.866-15.613 25.866-26.792 0-11.178-9.428-20.944-25.866-26.791zm-73.96 51.298v215.089l-50-37.476v-231.614l50-37.476v42.463c-12.939 5.941-20.236 14.676-20.236 24.507s7.297 18.566 20.236 24.507zm-140.364 193.784 29.216 70.803-74.579-36.511zm14.465-4.27 57.311-.544-28.21 71.071zm-3.976-14.963v-156.62h-15v160.459l-48.451 36.627v-306.422l48.451 36.627v57.646h15v-53.806l64.875.615v224.259zm75.938-244.346-28.528-71.32 74.816 36.627zm-14.379 4.44-57.862-.549 29.38-70.655zm-72.265-4.981-45.147-34.128 74.505-36.475zm209.514 58.488c-7.725 2.747-13.732 8.754-16.48 16.479-3.905 10.979-9.171 15.893-12.658 15.893s-8.753-4.914-12.659-15.893c-2.748-7.726-8.755-13.732-16.479-16.479-10.979-3.905-15.893-9.172-15.893-12.659 0-3.486 4.914-8.753 15.892-12.658 7.726-2.747 13.732-8.754 16.48-16.479 3.906-10.979 9.172-15.894 12.659-15.894 3.486 0 8.753 4.914 12.658 15.894 2.748 7.726 8.755 13.732 16.479 16.479 10.979 3.905 15.894 9.172 15.894 12.658 0 3.487-4.914 8.754-15.893 12.659z"/><path d="m40.557 198.345h14.972v28h-14.972z"/><path d="m63.105 233.9h28v14.973h-28z"/><path d="m40.557 256.804h14.972v28h-14.972z"/><path d="m4.98 233.9h28v14.973h-28z"/><path d="m397.62 365.095h14.972v28h-14.972z"/><path d="m420.168 400.65h28v14.973h-28z"/><path d="m397.62 423.554h14.972v28h-14.972z"/><path d="m362.043 400.65h28v14.973h-28z"/><path d="m47.105 17.088h15v14.973h-15z"/><path d="m422.98 279.025h15v14.973h-15z"/><path d="m47.105 384.088h15v14.973h-15z"/></g><g><path d="m226.408 315.574h-15v-14.188h15zm0-29.187h-15v-15h15zm0-30h-15v-15h15z" fill="#fff"/></g></g></g></svg>