<svg id="Layer_1" enable-background="new 0 0 512 512" height="512" viewBox="0 0 512 512" width="512" xmlns="http://www.w3.org/2000/svg"><g><g><path d="m255.992 127.728c-8.284 0-15-6.716-15-15v-97.533c0-8.284 6.716-15 15-15s15 6.716 15 15v97.533c0 8.284-6.716 15-15 15z" fill="#463f3f"/></g><path d="m256.591.256v127.473c8.004-.317 14.4-6.888 14.4-14.97v-97.534c.001-8.081-6.396-14.652-14.4-14.969z" fill="#281313"/><g fill="#ffe278"><circle cx="49.278" cy="110.225" r="15"/><circle cx="15.447" cy="15.23" r="15"/><circle cx="110.037" cy="49.473" r="15"/></g><circle cx="15" cy="496.778" fill="#ffcb00" r="15"/><circle cx="60.918" cy="450.86" fill="#ffcb00" r="15"/><circle cx="462.722" cy="110.225" fill="#ffbe00" r="15"/><circle cx="496.553" cy="15.23" fill="#ffbe00" r="15"/><circle cx="401.963" cy="49.473" fill="#ffbe00" r="15"/><circle cx="497" cy="496.778" fill="#ff8e00" r="15"/><circle cx="451.082" cy="450.86" fill="#ff8e00" r="15"/><g><path d="m255.97 440.11 154.809-35.398c11.786-28.27-41.645-62.182-41.484-102.107l-113.325-40.561z" fill="#6ba7ff"/><path d="m142.679 302.604c-.006.773-.027 1.535-.027 2.313 0 39.083-37.676 72.18-26.427 99.794l139.745 35.399v-190.895z" fill="#5ecbf1"/><path d="m255.97 162.046-92.807 38.451c-11.928 28.231-73.826 62.14-74.135 102.107h166.942z" fill="#45f6ff"/><path d="m350.013 200.497-94.043-38.451v140.559h164.559c.002-.406-8.724-51.956-8.724-52.363-.001-39.604-50.295-21.912-61.792-49.745z" fill="#5ecbf1"/><path d="m387.686 404.712h-131.716v107.093h.03c3.14 0 6.26-.082 9.366-.219 18.313-13.191 97.633-47.659 122.32-106.874z" fill="#5ecbf1"/><path d="m128.541 404.712c24.364 59.805 98.837 93.823 117.647 106.857 3.243.15 6.502.236 9.782.236v-107.093z" fill="#45f6ff"/><path d="m382.041 200.497c-24.444-59.174-97.645-92.858-116.316-105.787-3.224-.148-6.464-.233-9.725-.233-.01 0-.02 0-.03 0v106.02z" fill="#45f6ff"/><path d="m163.163 200.497h-88.864c-17.076 30.163-26.863 64.994-26.957 102.107h95.336c.31-39.967 8.557-73.876 20.485-102.107z" fill="#bcfbff"/><path d="m350.013 200.497h87.688c-34.335-60.648-98.146-102.399-171.976-105.787 18.672 12.929 59.844 46.613 84.288 105.787z" fill="#5ecbf1"/><path d="m246.635 94.696c-73.982 3.269-137.946 45.055-172.336 105.801h88.863c24.752-58.58 65.295-92.715 83.473-105.801z" fill="#45f6ff"/><path d="m369.309 301.394c0 .407-.013.805-.014 1.21h95.363c-.094-37.113-9.881-71.944-26.957-102.107h-87.688c11.497 27.833 19.296 61.294 19.296 100.897z" fill="#6ba7ff"/><path d="m265.366 511.586c74.415-3.288 138.692-45.548 172.934-106.874h-89.033c-24.686 59.215-65.588 93.683-83.901 106.874z" fill="#6ba7ff"/><path d="m142.652 304.918c0-.778.021-1.54.027-2.313h-95.336c-.001.179-.007.357-.007.537 0 36.876 9.579 71.509 26.364 101.571h87.8c-11.25-27.615-18.848-60.712-18.848-99.795z" fill="#45f6ff"/><path d="m464.657 302.604h-95.363c-.162 39.926-8.241 73.837-20.027 102.107h89.033c16.785-30.061 26.364-64.695 26.364-101.571 0-.179-.006-.356-.007-.536z" fill="#2681ff"/><path d="m161.5 404.712h-87.8c34.173 61.203 98.261 103.42 172.488 106.857-18.81-13.034-60.324-47.052-84.688-106.857z" fill="#5ecbf1"/><path d="m163.163 200.497h92.807v-106.02c-3.129 0-6.239.082-9.334.219-18.179 13.086-58.722 47.221-83.473 105.801z" fill="#bcfbff"/></g></g></svg>