<svg id="_x33_0" enable-background="new 0 0 64 64" height="512" viewBox="0 0 64 64" width="512" xmlns="http://www.w3.org/2000/svg"><g><g><g><path d="m33 49 2 9-3 4-3-4 2-9z" fill="#ffeaa7"/></g><g><path d="m32 45 3 1.8-2 2.2h-2l-2-2.2z" fill="#fcd770"/></g><g><path d="m11 41h15l1 7 2-1.2 2 2.2-2 9 3 4h-10v-13h-15c-2.21 0-4-1.79-4-4v-13h8z" fill="#4fc1e9"/></g><g><path d="m52.93 41v-9h8v13c0 2.21-1.79 4-4 4h-14.93v13h-10l3-4-2-9 2-2.2 2 1.2 1-7z" fill="#4fc1e9"/></g><g><path d="m32 45-3 1.8-2 1.2-1-7h2z" fill="#3bafda"/></g><g><path d="m38 41-1 7-2-1.2-3-1.8 4-4z" fill="#3bafda"/></g><g><path d="m39 11.98c0 .67-.16 1.33-.45 1.93l-.55 1.09h-9.88c-3.93 0-7.12 3.19-7.12 7.12 0 .59.07 1.17.21 1.73l.54 2.15h-3.75l-1.32-.66c-.82-.41-1.49-1.04-1.96-1.79-.46-.75-.72-1.63-.72-2.54 0-1.29.51-2.52 1.42-3.43l.42-.42c1.19-1.19 1.81-2.78 1.81-4.38 0-.95-.21-1.9-.65-2.78h.39c1.13 0 2.22.28 3.18.8.97.52 1.81 1.26 2.43 2.2l1.11-.55c1.46-.73 2.34-2.21 2.34-3.79 0-.28-.03-.55-.08-.83-.06-.3-.09-.6-.09-.9 0-.87.26-1.74.75-2.48.63-.93 1.57-1.6 2.66-1.87l2.31-.58c-.57 2.28.66 4.62 2.86 5.45l1.35.5c.84.31 1.54.87 2.03 1.58.48.71.76 1.55.76 2.45z" fill="#ff826e"/></g><g><path d="m50 21.01c0 .91-.26 1.79-.72 2.54-.47.75-1.14 1.38-1.96 1.79l-1.32.66h-3.45c.3-1.36.45-2.76.45-4.16v-3.84c0-.83-.34-1.58-.88-2.12-.25-.25-.55-.46-.88-.61l.5-1.48c.75-2.26 2.87-3.79 5.26-3.79-.44.88-.65 1.83-.65 2.78 0 1.6.62 3.19 1.81 4.38l.42.42c.91.91 1.42 2.14 1.42 3.43z" fill="#ff826e"/></g><g><path d="m29 22-1.79.89c-1.21.61-2.02 1.79-2.18 3.11h-1.03c-.8 0-1.52.31-2.05.81l-.2-.81-.54-2.15c-.14-.56-.21-1.14-.21-1.73 0-3.93 3.19-7.12 7.12-7.12h9.88 2c.44 0 .86.1 1.24.27.33.15.63.36.88.61.54.54.88 1.29.88 2.12 0 2.8-1.63 5.2-4 6.32-.91.44-1.92.68-3 .68h-4c-.83 0-1.58-.34-2.12-.88s-.88-1.29-.88-2.12z" fill="#656d78"/></g><g><path d="m42.55 26c-.08.36-.16.71-.26 1.06-.55-.65-1.37-1.06-2.29-1.06h-1v-1.67-.01c2.37-1.12 4-3.52 4-6.32v3.84c0 1.4-.15 2.8-.45 4.16z" fill="#656d78"/></g><g><path d="m12 27.76c0 1.47-.34 2.92-1 4.24h-8c-.66-1.32-1-2.77-1-4.24v-1.76c0-1.1.45-2.1 1.17-2.83.73-.72 1.73-1.17 2.83-1.17s2 .9 2 2h2c1.1 0 2 .9 2 2z" fill="#f0d0b4"/></g><g><path d="m36 41-4 4-4-4 .93-3.71c.92.46 1.96.71 3.07.71 1.08 0 2.1-.24 3.01-.68l.92 3.68z" fill="#f0d0b4"/></g><g><path d="m42.12 31.12c-.54.54-1.29.88-2.12.88h-1.07-.01c.06-.33.08-.66.08-1v-5h1c.92 0 1.74.41 2.29 1.06.44.52.71 1.2.71 1.94 0 .83-.34 1.58-.88 2.12z" fill="#f0d0b4"/></g><g><path d="m25 31c0 .34.02.67.08 1h-.01-1.07c-.83 0-1.58-.34-2.12-.88s-.88-1.29-.88-2.12c0-.86.36-1.64.95-2.19.53-.5 1.25-.81 2.05-.81h1.03c-.02.16-.03.31-.03.47z" fill="#f0d0b4"/></g><g><path d="m35.01 37.32c-.91.44-1.93.68-3.01.68-1.11 0-2.15-.25-3.07-.71-.7-.34-1.33-.79-1.88-1.34-1.05-1.05-1.76-2.41-1.97-3.95-.06-.33-.08-.66-.08-1v-4.53c0-.16.01-.31.03-.47.16-1.32.97-2.5 2.18-3.11l1.79-.89c0 .83.34 1.58.88 2.12s1.29.88 2.12.88h4c1.08 0 2.09-.24 3-.68v.01 1.67 5c0 .34-.02.67-.08 1-.33 2.36-1.84 4.33-3.91 5.32z" fill="#f0d0b4"/></g><g><path d="m55.93 24c0-1.1.89-2 2-2s2.11.45 2.83 1.17c.72.73 1.17 1.73 1.17 2.83v1.76c0 1.47-.35 2.92-1 4.24h-8c-.66-1.32-1-2.77-1-4.24v-1.76c0-1.1.89-2 2-2z" fill="#f0d0b4"/></g></g><g><path d="m57.927 21c-1.302 0-2.402.839-2.816 2h-1.184c-1.654 0-3 1.346-3 3v1.764c0 1.528.352 3.053 1 4.438v7.798h-15.219l-.545-2.181c1.746-1.07 3.048-2.787 3.574-4.819h.263c2.206 0 4-1.794 4-4 0-.791-.238-1.524-.635-2.145.415-1.64.635-3.324.635-5.017v-3.838c0-1.285-.619-2.417-1.563-3.149l.246-.74c.456-1.368 1.515-2.406 2.823-2.86-.512 2.354.186 4.855 1.948 6.618l.419.419c.727.726 1.127 1.691 1.127 2.719 0 1.465-.814 2.782-2.125 3.438l-1.322.661.895 1.789 1.322-.661c1.993-.996 3.23-2.999 3.23-5.227 0-1.562-.608-3.029-1.712-4.133l-.419-.419c-1.586-1.587-1.978-4.001-.975-6.008l.724-1.447h-1.618c-2.823 0-5.32 1.8-6.214 4.479l-.194.581c-.194-.029-.389-.06-.592-.06h-.407c.262-.639.407-1.326.407-2.017 0-2.198-1.383-4.194-3.442-4.968l-1.346-.505c-1.725-.646-2.688-2.481-2.241-4.269l.404-1.617-3.929.983c-1.331.332-2.482 1.144-3.243 2.285-.804 1.205-1.102 2.711-.817 4.132.285 1.426-.424 2.876-1.725 3.526l-.364.182c-1.462-1.724-3.609-2.732-5.902-2.732h-2.013l.724 1.447c1.003 2.007.612 4.421-.975 6.008l-.419.419c-1.104 1.104-1.712 2.571-1.712 4.133 0 2.228 1.238 4.23 3.23 5.227l1.322.661.895-1.789-1.322-.661c-1.311-.656-2.125-1.973-2.125-3.438 0-1.027.4-1.993 1.126-2.719l.419-.419c1.801-1.801 2.489-4.372 1.914-6.771 1.503.282 2.843 1.156 3.709 2.456l.49.734 1.896-.948c2.106-1.052 3.254-3.399 2.792-5.708-.181-.904.009-1.862.521-2.63.484-.727 1.217-1.243 2.064-1.455l.933-.233c.075 2.222 1.471 4.254 3.645 5.069l1.346.505c1.283.482 2.145 1.726 2.145 3.095 0 .511-.121 1.021-.349 1.479l-.269.538h-9.259c-4.479 0-8.123 3.644-8.123 8.123 0 .665.082 1.328.243 1.97l.615 2.461c-.529.679-.858 1.521-.858 2.446 0 2.206 1.794 4 4 4h.263c.52 2.007 1.796 3.708 3.511 4.78l-.555 2.22h-15.219v-7.799c.648-1.384 1-2.91 1-4.438v-1.763c0-1.654-1.346-3-3-3h-1.184c-.414-1.161-1.514-2-2.816-2-2.757 0-5 2.243-5 5v1.764c0 1.537.345 3.075 1 4.466v12.77c0 2.757 2.243 5 5 5h14v13h22v-13h13.927c2.757 0 5-2.243 5-5v-12.771c.655-1.391 1-2.929 1-4.466v-1.763c0-2.757-2.243-5-5-5zm-21.08 21-.624 4.367-2.61-1.566 2.801-2.801zm-4.847 18.334-1.924-2.566 1.726-7.768h.395l1.726 7.768zm.557-12.334h-1.115l-.882-.97 1.44-.864 1.439.864zm7.443-17v-4c1.103 0 2 .897 2 2s-.897 2-2 2zm1.654-5.632c-.506-.231-1.063-.368-1.654-.368v-.082c.724-.42 1.374-.95 1.931-1.568-.056.677-.147 1.351-.277 2.018zm-19.654 3.632c0-1.103.897-2 2-2v4c-1.103 0-2-.897-2-2zm2.224-4h-.224c-.495 0-.964.102-1.402.267l-.415-1.66c-.121-.483-.183-.983-.183-1.484 0-3.376 2.747-6.123 6.123-6.123h11.877c1.103 0 2 .897 2 2 0 3.309-2.691 6-6 6h-4c-1.103 0-2-.897-2-2s.897-2 2-2v-2c-1.983 0-3.621 1.453-3.934 3.349l-1.302.651c-1.249.625-2.147 1.714-2.54 3zm1.776 6v-4.528c0-1.144.635-2.171 1.658-2.683l.631-.316c.589 1.478 2.027 2.527 3.711 2.527h4c.692 0 1.359-.097 2-.263v5.263c0 3.309-2.691 6-6 6s-6-2.691-6-6zm6 8c.803 0 1.578-.122 2.311-.343l.524 2.095-2.835 2.834-2.893-2.893.514-2.055c.752.235 1.551.362 2.379.362zm-4.414 3 2.801 2.801-2.61 1.566-.624-4.367zm-24.586-16c0-1.654 1.346-3 3-3 .279 0 .531.116.713.302-1.009.483-1.713 1.506-1.713 2.698 0 1.654 1.346 3 3 3h1v-2h-1c-.551 0-1-.448-1-1s.449-1 1-1h2c.551 0 1 .448 1 1v1.764c0 1.106-.221 2.213-.643 3.236h-6.7c-.423-1.024-.657-2.128-.657-3.236zm17.832 19.445-1.664 1.109.964 1.446h-13.132c-1.654 0-3-1.346-3-3v-12h6v11h2v-2h13.133l1.09 7.633 2.589-1.553 1.099 1.21-1.987 8.943 2.076 2.767h-7v-12.303zm36.095 2.555h-13.059l.964-1.445-1.664-1.109-2.168 3.251v12.303h-7l2.076-2.768-1.987-8.943 1.099-1.21 2.589 1.553 1.09-7.632h13.06v2h2v-11h6v12c0 1.654-1.345 3-3 3zm4-20.236c0 1.108-.234 2.212-.657 3.236h-6.7c-.421-1.023-.643-2.13-.643-3.236v-1.764c0-.552.449-1 1-1h2c.551 0 1 .448 1 1s-.449 1-1 1h-1v2h1c1.654 0 3-1.346 3-3 0-1.192-.704-2.215-1.713-2.698.182-.186.434-.302.713-.302 1.654 0 3 1.346 3 3z"/><path d="m10.293 55.293 1.414 1.414 1.293-1.293v7.586h2v-7.586l1.293 1.293 1.414-1.414-3.707-3.707z"/><path d="m46.293 55.293 1.414 1.414 1.293-1.293v7.586h2v-7.586l1.293 1.293 1.414-1.414-3.707-3.707z"/><path d="m35.789 32.658.105-.211-1.789-.895-.105.212c-.381.762-1.147 1.236-2 1.236s-1.619-.474-2-1.236l-.105-.211-1.789.895.105.211c.722 1.444 2.174 2.341 3.789 2.341s3.067-.897 3.789-2.342z"/></g></g></svg>