<svg height="512" viewBox="0 0 58 58" width="512" xmlns="http://www.w3.org/2000/svg"><g id="Page-1" fill="none" fill-rule="evenodd"><g id="020---Genius" fill-rule="nonzero" transform="translate(-1)"><path id="Shape" d="m52.91 15.77c4.93-4.37 7.2-8.72 5.57-11.83-.3870327-.72142855-.9386017-1.34151543-1.61-1.81-.2667133-.87745812-.9201302-1.58472151-1.7737679-1.91993997s-1.8137159-.261565-2.6062321.19993997c-5.42-1.05-13.64-.06-22.49 2.9-8.99-3.01-17.35-3.99-22.76-2.84h-.01c-.52423629-.30861177-1.12167109-.47092065-1.73-.47-1.81156974.00038882-3.32238206 1.38530012-3.48 3.19-.19162775.23242805-.35915401.48371744-.5.75-1.63 3.11.64 7.46 5.57 11.83-4.93 4.37-7.2 8.72-5.57 11.83 1.55 2.96 6.33 4.24 12.74 3.88.84-.04 1.7-.12 2.6-.23.03.35.05.73.05 1.13 0 .54-.02 1.07-.04 1.59-.14 3.18-.4 6.07 3.06 9.36 4.03 3.84 4.03 7.67 8.06 7.67h4.02c4.03 0 4.03-3.83 8.06-7.67 3.46-3.29 3.2-6.18 3.06-9.36-.02-.52-.04-1.05-.04-1.59 0-.4.02-.78.05-1.13.9.11 1.76.19 2.6.23.14.01.28.01.41.02.9305656 1.0417729 2.2926512 1.5915937 3.6856554 1.4877551 1.3930043-.1038386 2.6585188-.8495282 3.4243446-2.0177551 2.54-.62 4.37-1.74 5.22-3.37 1.63-3.11-.64-7.46-5.57-11.83zm-5-11.77c1.1246906-.01241468 2.2484921.06785686 3.36.24.556912 1.25357295 1.9014481 1.96100577 3.25 1.71.09 1.29-1.53 3.89-5.27 6.92-4.0810072-2.8666002-8.4597419-5.28395687-13.06-7.21 3.8253764-1.02419897 7.7606643-1.58158617 11.72-1.66zm-42.24 2.99c1.59315602-.07563146 2.93369016-1.21878633 3.26-2.78 1.04660332-.1488897 2.1028983-.21908651 3.16-.21 3.9560398.07850429 7.8880075.63589681 11.71 1.66-.4.17-.8.35-1.2.53-4.1645821 1.82251448-8.1346823 4.0605119-11.85 6.68-2.91-2.36-4.54-4.46-5.08-5.88zm7.39 19.01h-.05c-4.45-.01-6.17-.99-6.46-1.52-.51-.93.61-3.26 3.75-6.13 1.7684647 1.2890393 3.6080369 2.4775832 5.51 3.56.2.114.414.222.615.335l.353 3.531c-.236.024-.486.065-.718.084-1.04.09-2.05.14-3 .14zm36.44-2c-1.4908122-.0042895-2.8857745.7344405-3.72 1.97-.6-.02-1.21-.06-1.84-.11-.232-.019-.482-.06-.718-.084l.353-3.531c.2-.113.417-.221.615-.335 1.9019631-1.0824168 3.7415353-2.2709607 5.51-3.56 3.14 2.87 4.26 5.2 3.75 6.13-.2408768.3129072-.567431.5491379-.94.68-.8234094-.7487567-1.897061-1.1625228-3.01-1.16z" fill="#f0c419"/><path id="Shape" d="m43 28h-26l-1-10h28z" fill="#fdd7ad"/><path id="Shape" d="m27.99 51h4.02l8.06-3.87c.9389775.8181006 1.9612467 1.5353649 3.05 2.14.9281703.5419812 1.9378656.9303255 2.99 1.15 1.7959339.3846702 3.5114216 1.0783092 5.07 2.05 1.4.79 2.83 1.56 4.26 2.32 1.01.54 2.69 1.11 3.29 2.14.1813439.327187.2743949.6959444.2701488 1.07h-58.00029756c-.00424612-.3740556.08880482-.742813.27014876-1.07.6-1.03 2.28-1.6 3.29-2.14 1.43-.76 2.86-1.53 4.26-2.32 1.5585784-.9716908 3.2740661-1.6653298 5.07-2.05 1.0521344-.2196745 2.0618297-.6080188 2.99-1.15 1.0887533-.6046351 2.1110225-1.3218994 3.05-2.14z" fill="#26b99a"/><path id="Shape" d="m42.63 58h-25.26c-.7981934-2.8229122-.9553578-5.7885356-.46-8.68l-.03-.05c1.0887533-.6046351 2.1110225-1.3218994 3.05-2.14v-3.8c4.03 3.84 4.03 7.67 8.06 7.67h4.02c4.03 0 4.03-3.83 8.06-7.67v3.8c.9389775.8181006 1.9612467 1.5353649 3.05 2.14l-.03.05c.4953578 2.8914644.3381934 5.8570878-.46 8.68z" fill="#f9c795"/><path id="Shape" d="m21 51.96c-.5522847 0-1-.4477153-1-1v-10.96c0-.5522847.4477153-1 1-1s1 .4477153 1 1v10.96c0 .5522847-.4477153 1-1 1z" fill="#cf976a"/><path id="Shape" d="m39 51.96c-.5522847 0-1-.4477153-1-1v-10.96c0-.5522847.4477153-1 1-1s1 .4477153 1 1v10.96c0 .5522847-.4477153 1-1 1z" fill="#cf976a"/><path id="Shape" d="m40.07 43.33c-4.03 3.84-4.03 7.67-8.06 7.67h-4.02c-4.03 0-4.03-3.83-8.06-7.67-3.46-3.29-3.2-6.18-3.06-9.36.02-.52.04-1.05.04-1.59 0-.4-.02-.78-.05-1.13 4.4727864-.5487853 8.8764364-1.5608875 13.14-3.02 4.2635636 1.4591125 8.6672136 2.4712147 13.14 3.02-.03.35-.05.73-.05 1.13 0 .54.02 1.07.04 1.59.14 3.18.4 6.07-3.06 9.36z" fill="#fdd7ad"/><path id="Shape" d="m30 28.23c-4.2635636 1.4591125-8.6672136 2.4712147-13.14 3.02-.9.11-1.76.19-2.6.23-6.41.36-11.19-.92-12.74-3.88-1.63-3.11.64-7.46 5.57-11.83.97.86 2.04 1.73 3.21 2.58-3.14 2.87-4.26 5.2-3.75 6.13.29.53 2.01 1.51 6.46 1.52h.05c.95 0 1.96-.05 3-.14 1.9416223-.1701336 3.8716001-.4539539 5.78-.85.88.4 1.79.8 2.71 1.18 1.8333333.76 3.65 1.44 5.45 2.04z" fill="#2fa8cc"/><g fill="#ff5364"><path id="Shape" d="m5.67 6.99c.54 1.42 2.17 3.52 5.08 5.88.98.79 2.11 1.62 3.39 2.46.56.36 1.15.73 1.77 1.1 3.2348057 1.9108376 6.619229 3.5562291 10.12 4.92 1.32.52 2.65 1.01 3.97 1.45 2.6720594.9034593 5.3972163 1.6415226 8.16 2.21h.01c1.9049148.3967216 3.8316051.6805495 5.77.85.63.05 1.24.09 1.84.11l.37 5.53c-.13-.01-.27-.01-.41-.02-.84-.04-1.7-.12-2.6-.23-4.4727864-.5487853-8.8764364-1.5608875-13.14-3.02-1.8-.6-3.6166667-1.28-5.45-2.04-.92-.38-1.83-.78-2.71-1.18-2.14-.98-4.16-2.02-6.03-3.1-1.9019631-1.0824168-3.7415353-2.2709607-5.51-3.56-1.17-.85-2.24-1.72-3.21-2.58-4.93-4.37-7.2-8.72-5.57-11.83.14084599-.26628256.30837225-.51757195.5-.75z"/><path id="Shape" d="m7.24.47c5.41-1.15 13.77-.17 22.76 2.84-1.8.6-3.6166667 1.28-5.45 2.04-.25.1-.5.21-.74.31h-.01c-3.8219925-1.02410319-7.7539602-1.58149571-11.71-1.66-1.0571017-.00908651-2.11339668.0611103-3.16.21z"/><path id="Shape" d="m52.51 25.16c.372569-.1308621.6991232-.3670928.94-.68.51-.93-.61-3.26-3.75-6.13 1.17-.85 2.24-1.72 3.21-2.58 4.93 4.37 7.2 8.72 5.57 11.83-.85 1.63-2.68 2.75-5.22 3.37z"/></g><path id="Shape" d="m56.87 2.13c.6713983.46848457 1.2229673 1.08857145 1.61 1.81 1.63 3.11-.64 7.46-5.57 11.83-.97.86-2.04 1.73-3.21 2.58-1.7684647 1.2890393-3.6080369 2.4775832-5.51 3.56-1.87 1.08-3.88 2.12-6.02 3.1h-.01c-2.7627837-.5684774-5.4879406-1.3065407-8.16-2.21 1.32-.44 2.65-.93 3.97-1.45 3.5016569-1.3617428 6.8862421-3.0072131 10.12-4.92.62-.37 1.21-.74 1.77-1.1 1.28-.84 2.41-1.67 3.39-2.46 3.74-3.03 5.36-5.63 5.27-6.92z" fill="#2fa8cc"/><path id="Shape" d="m49.25 12.87c-.98.79-2.11 1.62-3.39 2.46-.56.36-1.15.73-1.77 1.1-.034463-.8440838-.1584922-1.6821188-.37-2.5-1.23-4.81-5.16-7.04-8.33-8.06.27-.07.54-.14.8-.21 4.6002581 1.92604313 8.9789928 4.3433998 13.06 7.21z" fill="#ff5364"/><path id="Shape" d="m35.39 5.87c.27-.07.54-.14.8-.21 3.8253764-1.02419897 7.7606643-1.58158617 11.72-1.66 1.1246906-.01241468 2.2484921.06785686 3.36.24l1.22-3.83c-5.42-1.05-13.64-.06-22.49 2.9-1.8.6-3.6166667 1.28-5.45 2.04-.25.1-.5.21-.74.31h-.01c-.4.17-.8.35-1.2.53-4.1645821 1.82251448-8.1346823 4.0605119-11.85 6.68.98.79 2.11 1.62 3.39 2.46.56.36 1.15.73 1.77 1.1z" fill="#2fa8cc"/><path id="Shape" d="m54 28.5c.0043204 2.1300517-1.4825319 3.9725742-3.5654276 4.4183144-2.0828957.4457401-4.1935946-.6269056-5.0613934-2.5721727s-.255951-4.2324621 1.4671929-5.4846258c1.7231439-1.2521638 4.0874884-1.1276901 5.6696281.2984841.9512954.8491405 1.4936361 2.0648571 1.49 3.34z" fill="#f29c1f"/><path id="Shape" d="m9 3.5c-.00299303.23823262-.02641218.47576968-.07.71-.32630984 1.56121367-1.66684398 2.70436854-3.26 2.78-.05626392.00831073-.11314975.01165695-.17.01-1.93299662 0-3.5-1.56700338-3.5-3.5-.00330997-.10373593.00338767-.20754938.02-.31.15761794-1.80469988 1.66843026-3.18961118 3.48-3.19.60832891-.00092065 1.20576371.16138823 1.73.47h.01c1.08869298.62018201 1.76067051 1.7770524 1.76 3.03z" fill="#f29c1f"/><path id="Shape" d="m57 3c.0022689 1.45614814-1.0451186 2.70203245-2.48 2.95-1.3485519.25100577-2.693088-.45642705-3.25-1.71-.1764043-.38967905-.2684168-.81225505-.27-1.24.0017575-1.48563322 1.0905876-2.74622574 2.5601687-2.96403418 1.4695811-.21780845 2.8772398.67277637 3.3098313 2.09403418.0844676.28234628.1282415.5752949.13.87z" fill="#f0c419"/><path id="Shape" d="m44.09 16.43c-3.2337579 1.9127869-6.6183431 3.5582572-10.12 4.92-1.32.52-2.65 1.01-3.97 1.45-1.32-.44-2.65-.93-3.97-1.45-3.500771-1.3637709-6.8851943-3.0091624-10.12-4.92.034463-.8440838.1584922-1.6821188.37-2.5.8971195-3.3289107 3.2977606-6.04766454 6.49-7.35.599681-.270632 1.213965-.5076655 1.84-.71 1.4196547-.4652603 2.8903013-.75737503 4.38-.87h2.02c1.4896987.11262497 2.9603453.4047397 4.38.87 3.17 1.02 7.1 3.25 8.33 8.06.2115078.8178812.335537 1.6559162.37 2.5z" fill="#fdd7ad"/></g></g></svg>