<?xml version="1.0" encoding="iso-8859-1"?>
<!-- Generator: Adobe Illustrator 19.0.0, SVG Export Plug-In . SVG Version: 6.00 Build 0)  -->
<svg version="1.1" id="Capa_1" xmlns="http://www.w3.org/2000/svg" xmlns:xlink="http://www.w3.org/1999/xlink" x="0px" y="0px"
	 viewBox="0 0 512 512" style="enable-background:new 0 0 512 512;" xml:space="preserve">
<path style="fill:#A0E557;" d="M146,502H30c-11.046,0-20-8.954-20-20V106c0-11.046,8.954-20,20-20h116c11.046,0,20,8.954,20,20v376
	C166,493.046,157.046,502,146,502z"/>
<rect x="10" y="169.28" style="fill:#6A80FF;" width="156" height="249.44"/>
<path style="fill:#72D8FF;" d="M258,502h-72c-11.046,0-20-8.954-20-20V150c0-11.046,8.954-20,20-20h72c11.046,0,20,8.954,20,20v332
	C278,493.046,269.046,502,258,502z"/>
<g>
	<rect x="166" y="250.67" style="fill:#FFFFFF;" width="112" height="130.65"/>
	<path style="fill:#FFFFFF;" d="M482,502h-72c-11.046,0-20-8.954-20-20V150c0-11.046,8.954-20,20-20h72c11.046,0,20,8.954,20,20v332
		C502,493.046,493.046,502,482,502z"/>
</g>
<rect x="390" y="180" style="fill:#A0E557;" width="112" height="272"/>
<path style="fill:#FFFFFF;" d="M370,502h-72c-11.046,0-20-8.954-20-20V30c0-11.046,8.954-20,20-20h72c11.046,0,20,8.954,20,20v452
	C390,493.046,381.046,502,370,502z"/>
<rect x="278" y="72.5" style="fill:#6A80FF;" width="112" height="367"/>
<path d="M119.964,179.279h0.525c5.522,0,10-4.477,10-10s-4.478-10-10-10h-0.525c-5.522,0-10,4.477-10,10
	S114.441,179.279,119.964,179.279z"/>
<path d="M426,250c-5.522,0-10,4.477-10,10v112c0,5.523,4.478,10,10,10s10-4.477,10-10V260C436,254.477,431.522,250,426,250z"/>
<path d="M466,250c-5.522,0-10,4.477-10,10v112c0,5.523,4.478,10,10,10s10-4.477,10-10V260C476,254.477,471.522,250,466,250z"/>
<path d="M482,120h-72c-3.506,0-6.87,0.61-10,1.72V30c0-16.542-13.458-30-30-30h-72c-16.542,0-30,13.458-30,30v91.72
	c-3.13-1.11-6.494-1.72-10-1.72h-72c-3.506,0-6.87,0.61-10,1.72V106c0-16.542-13.458-30-30-30H30C13.458,76,0,89.458,0,106v376
	c0,16.542,13.458,30,30,30h116c7.678,0,14.688-2.902,20-7.663c5.312,4.761,12.322,7.663,20,7.663h72c7.678,0,14.688-2.902,20-7.663
	c5.312,4.761,12.322,7.663,20,7.663h72c7.678,0,14.688-2.902,20-7.663c5.312,4.761,12.322,7.663,20,7.663h72
	c16.542,0,30-13.458,30-30V150C512,133.458,498.542,120,482,120z M176,260.674h92v110.651h-92V260.674z M288,82.499h92v347.003h-92
	V82.499z M400,189.999h92v252h-92V189.999z M410,140h72c5.514,0,10,4.486,10,10v19.999h-92V150C400,144.486,404.486,140,410,140z
	 M298,20h72c5.514,0,10,4.486,10,10v32.499h-92V30C288,24.486,292.486,20,298,20z M186,140h72c5.514,0,10,4.486,10,10v90.674h-92
	V150C176,144.486,180.486,140,186,140z M30,96h116c5.514,0,10,4.486,10,10v302.721H20V179.279h58.985c5.522,0,10-4.477,10-10
	s-4.478-10-10-10H20V106C20,100.486,24.486,96,30,96z M146,492H30c-5.514,0-10-4.486-10-10v-53.279h136V482
	C156,487.514,151.514,492,146,492z M258,492h-72c-5.514,0-10-4.486-10-10v-90.674h92V482C268,487.514,263.514,492,258,492z M370,492
	h-72c-5.514,0-10-4.486-10-10v-32.499h92v2.477c0,0.007-0.001,0.013-0.001,0.019S380,452.01,380,452.016V482
	C380,487.514,375.514,492,370,492z M482,492h-72c-5.514,0-10-4.486-10-10v-20.002h92V482C492,487.514,487.514,492,482,492z"/>
<path d="M334,192.725c-5.522,0-10,4.477-10,10v80.104c0,5.523,4.478,10,10,10s10-4.477,10-10v-80.104
	C344,197.202,339.522,192.725,334,192.725z"/>
<path d="M334,315.83c-2.63,0-5.21,1.07-7.07,2.93s-2.93,4.44-2.93,7.07s1.069,5.21,2.93,7.07s4.44,2.93,7.07,2.93
	s5.21-1.07,7.069-2.93c1.86-1.86,2.931-4.44,2.931-7.07s-1.07-5.21-2.931-7.07C339.21,316.9,336.63,315.83,334,315.83z"/>
<g>
</g>
<g>
</g>
<g>
</g>
<g>
</g>
<g>
</g>
<g>
</g>
<g>
</g>
<g>
</g>
<g>
</g>
<g>
</g>
<g>
</g>
<g>
</g>
<g>
</g>
<g>
</g>
<g>
</g>
</svg>
