<svg id="Capa_1" enable-background="new 0 0 512 512" height="512" viewBox="0 0 512 512" width="512" xmlns="http://www.w3.org/2000/svg"><g><path d="m256 478.33c193.6 0 193.6-179.922 193.6-179.922 0-96.179-46.401-173.432-68.511-204.783-4.784-6.783-15.199-5.49-18.208 2.245l-5.305 13.643c-1.173 3.017-5.193 3.6-7.176 1.041-37.136-47.922-71.451-89.083-86.449-106.858-4.158-4.928-11.743-4.928-15.902 0-14.998 17.774-49.313 58.936-86.449 106.858-1.983 2.559-6.003 1.977-7.176-1.041l-5.305-13.643c-3.008-7.736-13.424-9.028-18.208-2.245-22.11 31.352-68.511 108.604-68.511 204.784 0 0 0 179.921 193.6 179.921z" fill="#f6e266"/><path d="m416.951 156.263c-1.36 152.534-125.412 275.772-278.268 275.772-6.477 0-12.897-.24-19.263-.675 28.681 26.816 71.787 46.971 136.58 46.971 193.6 0 193.6-179.922 193.6-179.922 0-55.372-15.38-104.468-32.649-142.146z" fill="#f1d333"/><path d="m256 478.33c149.83 0 149.83-139.244 149.83-139.244 0-70.835-32.521-128.405-50.413-154.718-4.712-6.929-15.27-5.706-18.307 2.104l-1.896 4.875c-1.173 3.017-5.192 3.597-7.177 1.04-26.937-34.707-51.816-64.667-64.066-79.226-4.164-4.948-11.779-4.948-15.943 0-12.25 14.558-37.128 44.518-64.066 79.226-1.985 2.558-6.003 1.978-7.177-1.04l-1.896-4.875c-3.037-7.81-13.595-9.033-18.307-2.104-17.892 26.313-50.413 83.883-50.413 154.718.001.001.001 139.244 149.831 139.244z" fill="#e49542"/><path d="m140.785 432.008c21.796 25.52 57.309 46.322 115.215 46.322 149.83 0 149.83-139.244 149.83-139.244 0-27.206-4.8-52.451-11.724-74.724-42.525 98.049-139.837 166.805-253.321 167.646z" fill="#e28424"/><g><path d="m150.783 401.835v-84.539h179.922v148.408 35.88c0 5.753-4.663 10.416-10.416 10.416h-128.577c-5.753 0-10.416-4.663-10.416-10.416v-35.88l-19.332-27.999c-7.282-10.544-11.181-23.055-11.181-35.87z" fill="#e2a770"/><g fill="#f1d0a5"><path d="m266.522 384.687c-12.784 0-23.148-10.364-23.148-23.148v-121c0-12.784 10.364-23.148 23.148-23.148 12.784 0 23.148 10.364 23.148 23.148v121c0 12.784-10.364 23.148-23.148 23.148z"/><path d="m312.817 374.691c-12.784 0-23.148-10.364-23.148-23.148v-101.008c0-12.784 10.364-23.148 23.148-23.148 12.784 0 23.148 10.364 23.148 23.148v101.009c0 12.784-10.363 23.147-23.148 23.147z"/><path d="m220.226 374.691c-12.784 0-23.148-10.364-23.148-23.148v-101.008c0-12.784 10.364-23.148 23.148-23.148 12.784 0 23.148 10.364 23.148 23.148v101.009c0 12.784-10.364 23.147-23.148 23.147z"/><path d="m173.93 354.7c-12.784 0-23.148-10.364-23.148-23.148v-61.026c0-12.784 10.364-23.148 23.148-23.148 12.784 0 23.148 10.364 23.148 23.148v61.026c0 12.784-10.363 23.148-23.148 23.148z"/></g><path d="m266.522 217.391c-2.971 0-5.808.566-8.417 1.585 8.621 3.368 14.73 11.749 14.73 21.562v121c0 9.813-6.11 18.194-14.73 21.563 2.61 1.02 5.447 1.585 8.417 1.585 12.784 0 23.148-10.364 23.148-23.148v-121c0-12.783-10.364-23.147-23.148-23.147z" fill="#f1b986"/><path d="m312.817 227.387c-2.971 0-5.808.566-8.417 1.585 8.621 3.368 14.73 11.749 14.73 21.562v101.009c0 9.813-6.11 18.194-14.73 21.562 2.61 1.02 5.447 1.585 8.417 1.585 12.784 0 23.148-10.364 23.148-23.148v-101.007c0-12.784-10.363-23.148-23.148-23.148z" fill="#f1b986"/><path d="m220.226 227.387c-2.971 0-5.808.566-8.417 1.585 8.621 3.368 14.73 11.749 14.73 21.562v101.009c0 9.813-6.11 18.194-14.73 21.562 2.61 1.02 5.447 1.585 8.417 1.585 12.784 0 23.148-10.364 23.148-23.148v-101.007c0-12.784-10.364-23.148-23.148-23.148z" fill="#f1b986"/><path d="m173.93 247.378c-2.971 0-5.808.566-8.417 1.585 8.621 3.368 14.73 11.749 14.73 21.562v61.026c0 9.813-6.11 18.194-14.73 21.562 2.61 1.02 5.447 1.585 8.417 1.585 12.784 0 23.148-10.364 23.148-23.148v-61.026c0-12.782-10.363-23.146-23.148-23.146z" fill="#f1b986"/><path d="m361.217 322.609c0-17.433-14.132-31.565-31.565-31.565h-73.652c-11.622 0-21.043 9.421-21.043 21.043 0 11.622 9.421 21.043 21.043 21.043h46.296v26.304l-40.566 15.846c-16.146 6.307-26.774 21.868-26.774 39.202v51.221h95.748l19.332-27.999c7.281-10.545 11.181-23.056 11.181-35.87z" fill="#e2a770"/></g><path d="m310.111 343.543v15.895c0 3.218-1.973 6.106-4.97 7.277l-40.57 15.843c-13.243 5.168-21.799 17.701-21.799 31.928v15.12c0 4.277-3.296 8.007-7.571 8.136-4.424.133-8.052-3.414-8.052-7.808v-15.447c0-20.711 12.459-38.957 31.74-46.482l35.599-13.902v-20.975h5.208c5.751-.001 10.415 4.663 10.415 10.415z" fill="#d5985c"/></g></svg>